<svg width="36" height="36" viewBox="0 0 36 36" fill="none" xmlns="http://www.w3.org/2000/svg">
<g id="Group 33121">
<circle id="Ellipse 244" cx="18" cy="18" r="18" fill="#F3F3F3"/>
<path id="Vector" d="M14.7418 11C14.3686 11 13.9998 11.0803 13.6604 11.2356C13.321 11.3908 13.019 11.6173 12.7749 11.8996L8.4706 16.8799C8.16641 17.2331 7.99938 17.6839 8 18.15V22.05C8 22.912 8.34241 23.7386 8.9519 24.3481C9.5614 24.9576 10.388 25.3 11.25 25.3H13.85C14.712 25.3 15.5386 24.9576 16.1481 24.3481C16.7576 23.7386 17.1 22.912 17.1 22.05V20.1H19.7V22.05C19.7 22.912 20.0424 23.7386 20.6519 24.3481C21.2614 24.9576 22.088 25.3 22.95 25.3H25.55C26.412 25.3 27.2386 24.9576 27.8481 24.3481C28.4576 23.7386 28.8 22.912 28.8 22.05V18.15C28.8 17.5923 28.566 17.0905 28.1916 16.7356L24.0251 11.9022C23.7811 11.6192 23.479 11.3922 23.1394 11.2365C22.7997 11.0808 22.4305 11.0001 22.0569 11H21C20.8276 11 20.6623 11.0685 20.5404 11.1904C20.4185 11.3123 20.35 11.4776 20.35 11.65C20.35 11.8224 20.4185 11.9877 20.5404 12.1096C20.6623 12.2315 20.8276 12.3 21 12.3H22.0569C22.2437 12.3001 22.4283 12.3404 22.5981 12.4182C22.768 12.4961 22.919 12.6096 23.041 12.7511L26.0141 16.2H21.65C21.1328 16.2 20.6368 16.4054 20.2711 16.7711C19.9054 17.1368 19.7 17.6328 19.7 18.15V18.8H17.1V18.15C17.1 17.6328 16.8946 17.1368 16.5289 16.7711C16.1632 16.4054 15.6672 16.2 15.15 16.2H10.7755L13.759 12.7498C13.881 12.6087 14.0319 12.4955 14.2014 12.4179C14.371 12.3403 14.5553 12.3001 14.7418 12.3H15.8C15.9724 12.3 16.1377 12.2315 16.2596 12.1096C16.3815 11.9877 16.45 11.8224 16.45 11.65C16.45 11.4776 16.3815 11.3123 16.2596 11.1904C16.1377 11.0685 15.9724 11 15.8 11H14.7418ZM15.8 18.15V22.05C15.8 22.5672 15.5946 23.0632 15.2289 23.4289C14.8632 23.7946 14.3672 24 13.85 24H11.25C10.7328 24 10.2368 23.7946 9.87114 23.4289C9.50545 23.0632 9.3 22.5672 9.3 22.05V18.15C9.3 17.9776 9.36848 17.8123 9.49038 17.6904C9.61228 17.5685 9.77761 17.5 9.95 17.5H15.15C15.3224 17.5 15.4877 17.5685 15.6096 17.6904C15.7315 17.8123 15.8 17.9776 15.8 18.15ZM21 22.05V18.15C21 17.9776 21.0685 17.8123 21.1904 17.6904C21.3123 17.5685 21.4776 17.5 21.65 17.5H26.85C27.006 17.5 27.149 17.5546 27.2608 17.6469L27.3323 17.7288L27.3401 17.7236C27.4433 17.8417 27.5001 17.9932 27.5 18.15V22.05C27.5 22.5672 27.2946 23.0632 26.9289 23.4289C26.5632 23.7946 26.0672 24 25.55 24H22.95C22.4328 24 21.9368 23.7946 21.5711 23.4289C21.2054 23.0632 21 22.5672 21 22.05Z" fill="#9D9D9D"/>
</g>
</svg>
