<svg width="38" height="36" viewBox="0 0 38 36" fill="none" xmlns="http://www.w3.org/2000/svg">
<g id="Group 33117">
<ellipse id="Ellipse 243" cx="19" cy="18" rx="19" ry="18" fill="#F3F3F3"/>
<path id="Vector" fill-rule="evenodd" clip-rule="evenodd" d="M20.3218 11.1504C20.1608 11.1504 20.0063 11.0898 19.8925 10.9819C19.7786 10.874 19.7146 10.7277 19.7146 10.5752C19.7146 10.4226 19.7786 10.2763 19.8925 10.1685C20.0063 10.0606 20.1608 10 20.3218 10H26.3932C26.5542 10 26.7086 10.0606 26.8225 10.1685C26.9364 10.2763 27.0003 10.4226 27.0003 10.5752V16.327C27.0003 16.4796 26.9364 16.6259 26.8225 16.7338C26.7086 16.8416 26.5542 16.9022 26.3932 16.9022C26.2322 16.9022 26.0777 16.8416 25.9639 16.7338C25.85 16.6259 25.786 16.4796 25.786 16.327V11.9637L20.7723 16.7136C21.758 17.8561 22.2426 19.3139 22.1257 20.7853C22.0088 22.2568 21.2994 23.6295 20.1443 24.6194C18.9891 25.6093 17.4765 26.1407 15.9194 26.1038C14.3623 26.0668 12.8797 25.4643 11.7783 24.4209C10.6769 23.3774 10.0409 21.9729 10.0019 20.4977C9.96291 19.0225 10.5239 17.5896 11.5688 16.4952C12.6137 15.4009 14.0626 14.7288 15.6158 14.6181C17.169 14.5073 18.7078 14.9664 19.9138 15.9003L24.9275 11.1504H20.3218ZM16.0718 15.7519C14.7836 15.7519 13.5482 16.2367 12.6373 17.0996C11.7264 17.9625 11.2147 19.133 11.2147 20.3533C11.2147 21.5737 11.7264 22.7441 12.6373 23.6071C13.5482 24.47 14.7836 24.9548 16.0718 24.9548C17.36 24.9548 18.5954 24.47 19.5063 23.6071C20.4172 22.7441 20.9289 21.5737 20.9289 20.3533C20.9289 19.133 20.4172 17.9625 19.5063 17.0996C18.5954 16.2367 17.36 15.7519 16.0718 15.7519Z" fill="#9D9D9D"/>
</g>
</svg>
