<svg width="36" height="36" viewBox="0 0 36 36" fill="none" xmlns="http://www.w3.org/2000/svg">
<g id="Group 33116">
<circle id="Ellipse 242" cx="18" cy="18" r="18" fill="#3A2C27"/>
<path id="Vector" fill-rule="evenodd" clip-rule="evenodd" d="M18.25 9.24993C16.9239 9.24993 15.6521 9.77671 14.7145 10.7144C13.7768 11.6521 13.25 12.9238 13.25 14.2499C13.25 15.576 13.7768 16.8478 14.7145 17.7855C15.6521 18.7231 16.9239 19.2499 18.25 19.2499C19.5761 19.2499 20.8479 18.7231 21.7855 17.7855C22.7232 16.8478 23.25 15.576 23.25 14.2499C23.25 12.9238 22.7232 11.6521 21.7855 10.7144C20.8479 9.77671 19.5761 9.24993 18.25 9.24993ZM12 14.2499C12 13.0404 12.351 11.8569 13.0103 10.843C13.6696 9.82899 14.609 9.0281 15.7144 8.53743C16.8199 8.04676 18.044 7.88738 19.2383 8.07864C20.4326 8.26989 21.5457 8.80355 22.4427 9.61491C23.3396 10.4263 23.9819 11.4804 24.2916 12.6496C24.6013 13.8188 24.5651 15.0527 24.1875 16.2017C23.8098 17.3507 23.1068 18.3654 22.1639 19.1228C21.2209 19.8802 20.0784 20.3477 18.875 20.4687V22.9999H21.375C21.5408 22.9999 21.6997 23.0658 21.8169 23.183C21.9342 23.3002 22 23.4592 22 23.6249C22 23.7907 21.9342 23.9497 21.8169 24.0669C21.6997 24.1841 21.5408 24.2499 21.375 24.2499H18.875V27.3749C18.875 27.5407 18.8092 27.6997 18.6919 27.8169C18.5747 27.9341 18.4158 27.9999 18.25 27.9999C18.0842 27.9999 17.9253 27.9341 17.8081 27.8169C17.6908 27.6997 17.625 27.5407 17.625 27.3749V24.2499H15.125C14.9592 24.2499 14.8003 24.1841 14.6831 24.0669C14.5658 23.9497 14.5 23.7907 14.5 23.6249C14.5 23.4592 14.5658 23.3002 14.6831 23.183C14.8003 23.0658 14.9592 22.9999 15.125 22.9999H17.625V20.4687C16.0834 20.3137 14.6542 19.5917 13.6148 18.4426C12.5755 17.2935 12 15.7993 12 14.2499Z" fill="white"/>
</g>
</svg>
