<svg width="23" height="23" viewBox="0 0 23 23" fill="none" xmlns="http://www.w3.org/2000/svg">
<g id="moon.1 1">
<path id="Vector" fill-rule="evenodd" clip-rule="evenodd" d="M7.64353 6.02343C5.94542 7.17945 4.83333 9.12725 4.83333 11.3319C4.83333 14.8758 7.70618 17.7486 11.25 17.7486C13.4547 17.7486 15.4024 16.6365 16.5585 14.9384C11.8749 14.4264 8.15553 10.7069 7.64353 6.02343ZM17.6667 13.1653C18.4605 13.1653 19.1441 13.8649 18.83 14.594C17.5657 17.528 14.6477 19.5819 11.25 19.5819C6.69365 19.5819 3 15.8882 3 11.3319C3 7.93421 5.05395 5.01624 7.98795 3.75191C8.71701 3.43773 9.41667 4.12137 9.41667 4.91524C9.41667 9.4716 13.1103 13.1653 17.6667 13.1653Z" fill="#868B90"/>
</g>
</svg>
