<svg width="17" height="17" viewBox="0 0 17 17" fill="none" xmlns="http://www.w3.org/2000/svg">
<g id="search">
<path id="Union" d="M16.7177 15.3923L13.667 12.3639C16.049 9.31421 15.7984 4.97091 13.0604 2.23452C11.6188 0.793766 9.69539 0 7.64818 0C5.59997 0 3.67749 0.793808 2.23592 2.23452C0.794264 3.67527 0 5.59747 0 7.64339C0 9.69032 0.794306 11.6116 2.23592 13.0523C3.67757 14.493 5.60098 15.2868 7.64818 15.2868C9.34128 15.2868 11.0132 14.723 12.3503 13.6576L15.3806 16.7283C15.5683 16.916 15.7986 17 16.0492 17C16.2998 17 16.53 16.8956 16.7177 16.7283C17.0941 16.3734 17.0941 15.7681 16.7177 15.392L16.7177 15.3923ZM13.4164 7.64339C13.4164 9.18857 12.8107 10.6302 11.7233 11.716C10.6368 12.8019 9.17391 13.4081 7.64812 13.4081C6.12233 13.4081 4.65944 12.8027 3.57293 11.716C2.48638 10.6302 1.87983 9.16823 1.87983 7.64339C1.87983 6.09821 2.48555 4.65658 3.57293 3.57076C4.65948 2.48489 6.12233 1.87872 7.64812 1.87872C9.19427 1.87872 10.6368 2.48405 11.7233 3.57076C12.8099 4.65744 13.4164 6.0983 13.4164 7.64339Z" fill="#777E91"/>
</g>
</svg>
