<svg width="19" height="19" viewBox="0 0 19 19" fill="none" xmlns="http://www.w3.org/2000/svg">
<g id="Setting_line">
<path id="Subtract" d="M11.1913 2.6613L11.9394 2.60787L11.9379 2.58729L11.9353 2.56682L11.1913 2.6613ZM11.1913 2.66128L10.445 2.7359L10.446 2.74585L10.4472 2.75576L11.1913 2.66128ZM11.1913 2.66134L10.4432 2.71478L10.4439 2.72539L10.445 2.73597L11.1913 2.66134ZM11.2711 3.23399L11.9849 3.00376L11.9849 3.00376L11.2711 3.23399ZM12.6787 3.81705L12.3368 3.14953V3.14953L12.6787 3.81705ZM13.1401 3.46856L12.6901 2.86856L12.6775 2.87806L12.6652 2.88809L13.1401 3.46856ZM13.1402 3.46855L13.5902 4.06855L13.6028 4.05904L13.6151 4.04901L13.1402 3.46855ZM13.3964 3.27244L13.0102 2.6295V2.62951L13.3964 3.27244ZM14.5089 3.32793L14.0607 3.92924L14.0607 3.92925L14.5089 3.32793ZM14.7444 3.54857L15.2747 3.01824L14.7444 3.54857ZM15.4517 4.2559L14.9214 4.78623L14.9214 4.78623L15.4517 4.2559ZM15.6724 4.49136L15.0711 4.93959L15.0711 4.9396L15.6724 4.49136ZM15.7279 5.60391L15.0849 5.21773L15.0849 5.21774L15.7279 5.60391ZM15.5318 5.86014L14.9512 5.38518L14.9461 5.39162L15.5318 5.86014ZM15.5317 5.86016L16.1012 6.34825L16.1094 6.3386L16.1174 6.32868L15.5317 5.86016ZM15.5317 5.86017L14.9623 5.37208L14.9567 5.3786L14.9513 5.38524L15.5317 5.86017ZM15.1832 6.32158L15.8507 6.66351V6.66351L15.1832 6.32158ZM15.7663 7.7292L15.9965 7.01541H15.9965L15.7663 7.7292ZM16.339 7.80905L16.2644 8.55532H16.2644L16.339 7.80905ZM16.6589 7.85156L16.4774 8.57925H16.4774L16.6589 7.85156ZM17.4064 8.67748L18.1485 8.56923V8.56923L17.4064 8.67748ZM17.4064 10.3228L18.1485 10.431V10.431L17.4064 10.3228ZM16.6588 11.1488L16.8403 11.8765L16.8403 11.8765L16.6588 11.1488ZM16.3391 11.1913L16.4137 11.9375H16.4137L16.3391 11.1913ZM15.7667 11.271L15.9969 11.9849L15.7667 11.271ZM15.1836 12.6789L15.8511 12.3368L15.8511 12.3368L15.1836 12.6789ZM15.5318 13.1399L14.9514 13.6148L14.9592 13.6244L14.9674 13.6338L15.5318 13.1399ZM15.5319 13.1399L16.1319 12.6899L16.1149 12.6673L16.0963 12.646L15.5319 13.1399ZM15.5319 13.1399L14.9319 13.5899L14.9414 13.6026L14.9514 13.6149L15.5319 13.1399ZM15.7278 13.396L16.3707 13.0097L16.3707 13.0097L15.7278 13.396ZM15.6723 14.5087L15.0711 14.0604L15.0711 14.0604L15.6723 14.5087ZM15.4519 14.744L14.9215 14.2137H14.9215L15.4519 14.744ZM14.7444 15.4514L15.2748 15.9817H15.2748L14.7444 15.4514ZM14.509 15.672L14.0607 15.0707L14.0607 15.0707L14.509 15.672ZM13.3964 15.7275L13.7826 15.0846L13.7826 15.0846L13.3964 15.7275ZM13.1402 15.5314L12.6653 16.1119L12.6653 16.1119L13.1402 15.5314ZM12.6788 15.1829L12.3368 15.8504L12.3369 15.8504L12.6788 15.1829ZM11.2712 15.766L11.9849 15.9962L11.9849 15.9962L11.2712 15.766ZM11.1913 16.3388L11.9338 16.4449L11.936 16.4292L11.9376 16.4134L11.1913 16.3388ZM11.1913 16.3388L10.4488 16.2328L10.4466 16.2484L10.445 16.2642L11.1913 16.3388ZM11.1487 16.659L11.8764 16.8406V16.8406L11.1487 16.659ZM10.3229 17.4063L10.4312 18.1485L10.4312 18.1485L10.3229 17.4063ZM8.67748 17.4064L8.56923 18.1485H8.56923L8.67748 17.4064ZM7.85156 16.6589L8.57925 16.4774V16.4774L7.85156 16.6589ZM7.80905 16.339L8.55533 16.2644L8.55533 16.2644L7.80905 16.339ZM7.7292 15.7663L7.01541 15.9965L7.01541 15.9965L7.7292 15.7663ZM6.32159 15.1832L5.97968 14.5157L5.97968 14.5157L6.32159 15.1832ZM5.86014 15.5318L5.38521 14.9513H5.38521L5.86014 15.5318ZM5.60386 15.7279L5.99003 16.3708L5.99004 16.3708L5.60386 15.7279ZM4.49133 15.6724L4.04311 16.2737L4.49133 15.6724ZM4.25585 15.4517L4.78618 14.9214L4.78618 14.9214L4.25585 15.4517ZM3.54855 14.7444L3.01822 15.2748L3.54855 14.7444ZM3.54853 14.7444L3.0182 15.2748H3.0182L3.54853 14.7444ZM3.32788 14.509L2.72656 14.9572H2.72656L3.32788 14.509ZM3.2724 13.3964L2.62946 13.0103H2.62946L3.2724 13.3964ZM3.46854 13.1402L4.049 13.6151L4.049 13.6151L3.46854 13.1402ZM3.81704 12.6787L4.48456 13.0207L3.81704 12.6787ZM3.23398 11.2711L3.00376 11.9849L3.00376 11.9849L3.23398 11.2711ZM2.6613 11.1913L2.56827 11.9355L2.57746 11.9366L2.58667 11.9376L2.6613 11.1913ZM2.66127 11.1913L2.7543 10.4471L2.74511 10.4459L2.7359 10.445L2.66127 11.1913ZM2.34143 11.1488L2.15988 11.8765H2.15988L2.34143 11.1488ZM1.59397 10.3228L0.851817 10.4311H0.851818L1.59397 10.3228ZM1.59398 8.67741L2.33612 8.78572L2.33612 8.78572L1.59398 8.67741ZM2.34135 7.85158L2.15974 7.1239H2.15974L2.34135 7.85158ZM2.66139 7.80904L2.73602 8.55532H2.73602L2.66139 7.80904ZM3.23439 7.72914L3.00408 7.01538H3.00408L3.23439 7.72914ZM3.81739 6.32166L3.14983 6.66351H3.14983L3.81739 6.32166ZM3.46867 5.85994L4.04914 5.38501L4.04914 5.38501L3.46867 5.85994ZM3.27238 5.60346L2.6294 5.98956H2.6294L3.27238 5.60346ZM3.32786 4.49109L2.72649 4.04293L2.72649 4.04293L3.32786 4.49109ZM3.54868 4.25544L3.01835 3.72511L3.01835 3.72511L3.54868 4.25544ZM4.25589 3.54823L3.72556 3.0179L3.72556 3.0179L4.25589 3.54823ZM4.49137 3.32756L4.04314 2.72623L4.04314 2.72623L4.49137 3.32756ZM5.6039 3.27207L5.99007 2.62913L5.99007 2.62913L5.6039 3.27207ZM5.86024 3.46827L6.34039 2.89208L6.33516 2.8878L5.86024 3.46827ZM5.86024 3.46827L5.38008 4.04446L5.38531 4.04874L5.86024 3.46827ZM6.32151 3.81668L5.9795 4.48416L5.9795 4.48416L6.32151 3.81668ZM7.72928 3.23357L7.01546 3.00343V3.00343L7.72928 3.23357ZM7.80906 2.6612L7.06485 2.56817L7.0637 2.57736L7.06278 2.58657L7.80906 2.6612ZM7.80906 2.66118L8.55327 2.75421L8.55442 2.74502L8.55534 2.73581L7.80906 2.66118ZM7.85154 2.34151L8.57925 2.523L8.57925 2.523L7.85154 2.34151ZM8.67757 1.59395L8.78576 2.33611L8.78576 2.33611L8.67757 1.59395ZM10.3228 1.59397L10.2146 2.33611L10.2146 2.33611L10.3228 1.59397ZM11.1488 2.34143L11.8765 2.15988L11.8765 2.15987L11.1488 2.34143ZM11.9353 2.56682L11.9353 2.5668L10.4472 2.75576L10.4473 2.75578L11.9353 2.56682ZM11.9394 2.60791L11.9394 2.60787L10.4432 2.71474L10.4432 2.71478L11.9394 2.60791ZM11.9849 3.00376C11.9902 3.02018 11.9849 3.01074 11.9744 2.93007C11.9643 2.8529 11.9537 2.74857 11.9376 2.58671L10.445 2.73597C10.4715 3.0005 10.4933 3.26558 10.5573 3.46422L11.9849 3.00376ZM12.3368 3.14953C12.1997 3.21979 12.0322 3.15043 11.9849 3.00376L10.5573 3.46421C10.8885 4.49086 12.0606 4.97637 13.0207 4.48457L12.3368 3.14953ZM12.6652 2.88809C12.5393 2.99111 12.4581 3.05745 12.3964 3.10487C12.3319 3.15445 12.3215 3.15739 12.3368 3.14953L13.0207 4.48457C13.2064 4.38941 13.4093 4.21739 13.6151 4.04903L12.6652 2.88809ZM12.6902 2.86855L12.6901 2.86856L13.5901 4.06856L13.5902 4.06855L12.6902 2.86855ZM13.0102 2.62951C12.8898 2.70184 12.7748 2.79842 12.6652 2.88808L13.6151 4.04901C13.6827 3.99369 13.7226 3.96115 13.7533 3.93733C13.782 3.91503 13.7874 3.91244 13.7826 3.91537L13.0102 2.62951ZM14.9572 2.72661C14.388 2.3023 13.6188 2.26394 13.0102 2.6295L13.7826 3.91537C13.8695 3.86315 13.9794 3.86863 14.0607 3.92924L14.9572 2.72661ZM15.2747 3.01824C15.1746 2.91811 15.0698 2.81057 14.9572 2.72661L14.0607 3.92925C14.0561 3.92585 14.0613 3.92896 14.0877 3.95401C14.1159 3.98078 14.1523 4.01712 14.2141 4.0789L15.2747 3.01824ZM15.982 3.72557L15.2747 3.01824L14.2141 4.0789L14.9214 4.78623L15.982 3.72557ZM16.2737 4.04313C16.1897 3.93049 16.0822 3.8257 15.982 3.72557L14.9214 4.78623C14.9832 4.84801 15.0195 4.88444 15.0463 4.91263C15.0713 4.939 15.0745 4.94415 15.0711 4.93959L16.2737 4.04313ZM16.3708 5.99009C16.7364 5.38149 16.698 4.61233 16.2737 4.04312L15.0711 4.9396C15.1317 5.02091 15.1371 5.13079 15.0849 5.21773L16.3708 5.99009ZM16.1122 6.33506C16.2019 6.22548 16.2985 6.11051 16.3708 5.99009L15.0849 5.21774C15.0879 5.21286 15.0853 5.21829 15.063 5.24703C15.0391 5.27773 15.0066 5.31759 14.9513 5.38521L16.1122 6.33506ZM16.1174 6.32868L16.1174 6.32866L14.9461 5.39162L14.9461 5.39164L16.1174 6.32868ZM16.1012 6.34826L16.1012 6.34825L14.9623 5.37207L14.9623 5.37208L16.1012 6.34826ZM15.8507 6.66351C15.8429 6.67886 15.8458 6.66846 15.8954 6.60394C15.9428 6.54223 16.0092 6.46101 16.1122 6.3351L14.9513 5.38524C14.7829 5.59102 14.6109 5.79388 14.5157 5.97966L15.8507 6.66351ZM15.9965 7.01541C15.8499 6.96811 15.7805 6.80066 15.8507 6.66351L14.5157 5.97966C14.0239 6.93975 14.5094 8.11185 15.5361 8.44299L15.9965 7.01541ZM16.4136 7.06277C16.2517 7.04658 16.1474 7.03606 16.0702 7.02596C15.9895 7.01539 15.9801 7.01012 15.9965 7.01541L15.536 8.44299C15.7347 8.50706 15.9998 8.52887 16.2644 8.55532L16.4136 7.06277ZM16.8405 7.12387C16.7042 7.08986 16.5545 7.07686 16.4136 7.06277L16.2644 8.55532C16.3513 8.56402 16.4025 8.5692 16.4411 8.57406C16.4772 8.57861 16.4829 8.58063 16.4774 8.57925L16.8405 7.12387ZM18.1485 8.56923C18.046 7.86672 17.5293 7.29573 16.8405 7.12387L16.4774 8.57925C16.5758 8.60381 16.6496 8.68537 16.6642 8.78573L18.1485 8.56923ZM18.1668 9.00002C18.1668 8.85841 18.1688 8.70825 18.1485 8.56923L16.6642 8.78573C16.6634 8.7801 16.6648 8.78595 16.6658 8.82231C16.6668 8.86118 16.6668 8.91264 16.6668 9.00002H18.1668ZM18.1668 10.0004V9.00002H16.6668V10.0004H18.1668ZM18.1485 10.431C18.1688 10.292 18.1668 10.1419 18.1668 10.0004H16.6668C16.6668 10.0877 16.6668 10.1392 16.6658 10.178C16.6648 10.2144 16.6634 10.2202 16.6642 10.2146L18.1485 10.431ZM16.8403 11.8765C17.5293 11.7047 18.0461 11.1336 18.1485 10.431L16.6642 10.2146C16.6496 10.3149 16.5758 10.3965 16.4773 10.4211L16.8403 11.8765ZM16.4137 11.9375C16.5546 11.9235 16.7041 11.9105 16.8403 11.8765L16.4773 10.4211C16.4829 10.4197 16.4772 10.4217 16.4411 10.4263C16.4025 10.4311 16.3514 10.4363 16.2644 10.445L16.4137 11.9375ZM15.9969 11.9849C15.9804 11.9902 15.9899 11.9849 16.0705 11.9743C16.1476 11.9642 16.2519 11.9537 16.4137 11.9375L16.2645 10.445C16 10.4714 15.7351 10.4932 15.5366 10.5572L15.9969 11.9849ZM15.8511 12.3368C15.7808 12.1996 15.8501 12.0322 15.9969 11.9849L15.5366 10.5572C14.5097 10.8883 14.0241 12.0607 14.5161 13.0209L15.8511 12.3368ZM16.1123 12.665C16.0094 12.5392 15.9431 12.458 15.8957 12.3963C15.8461 12.3319 15.8432 12.3215 15.8511 12.3368L14.5161 13.0209C14.6112 13.2065 14.7831 13.4092 14.9514 13.6148L16.1123 12.665ZM16.0963 12.646L16.0963 12.646L14.9674 13.6338L14.9674 13.6338L16.0963 12.646ZM16.1319 12.6899L16.1319 12.6899L14.9319 13.5899L14.9319 13.5899L16.1319 12.6899ZM16.3707 13.0097C16.2984 12.8894 16.2019 12.7745 16.1123 12.665L14.9514 13.6149C15.0067 13.6824 15.0392 13.7223 15.063 13.7529C15.0853 13.7817 15.0879 13.7871 15.085 13.7822L16.3707 13.0097ZM16.2736 14.957C16.6981 14.3877 16.7364 13.6184 16.3707 13.0097L15.0849 13.7822C15.1372 13.8692 15.1317 13.9791 15.0711 14.0604L16.2736 14.957ZM15.9822 15.2743C16.0822 15.1743 16.1897 15.0695 16.2736 14.957L15.0711 14.0604C15.0745 14.0558 15.0714 14.061 15.0463 14.0873C15.0196 14.1155 14.9833 14.1519 14.9215 14.2137L15.9822 15.2743ZM15.2748 15.9817L15.9822 15.2743L14.9215 14.2137L14.2141 14.9211L15.2748 15.9817ZM14.9572 16.2734C15.0698 16.1894 15.1746 16.0819 15.2748 15.9817L14.2141 14.9211C14.1523 14.9829 14.1159 15.0192 14.0877 15.046C14.0613 15.071 14.0562 15.0741 14.0607 15.0707L14.9572 16.2734ZM13.0102 16.3705C13.6188 16.736 14.388 16.6977 14.9572 16.2734L14.0607 15.0707C13.9794 15.1313 13.8695 15.1368 13.7826 15.0846L13.0102 16.3705ZM12.6653 16.1119C12.7748 16.2016 12.8898 16.2981 13.0102 16.3705L13.7826 15.0846C13.7875 15.0875 13.782 15.0849 13.7533 15.0626C13.7226 15.0388 13.6827 15.0063 13.6151 14.9509L12.6653 16.1119ZM12.3369 15.8504C12.3215 15.8426 12.3319 15.8455 12.3964 15.8951C12.4581 15.9425 12.5393 16.0089 12.6653 16.1119L13.6151 14.951C13.4093 14.7826 13.2065 14.6106 13.0207 14.5154L12.3369 15.8504ZM11.9849 15.9962C12.0322 15.8495 12.1997 15.7802 12.3368 15.8504L13.0207 14.5154C12.0606 14.0236 10.8885 14.5091 10.5574 15.5358L11.9849 15.9962ZM11.9376 16.4134C11.9538 16.2515 11.9643 16.1471 11.9744 16.0699C11.985 15.9892 11.9902 15.9798 11.9849 15.9962L10.5574 15.5358C10.4933 15.7344 10.4715 15.9995 10.445 16.2642L11.9376 16.4134ZM11.9338 16.4449L11.9338 16.4449L10.4488 16.2327L10.4488 16.2328L11.9338 16.4449ZM11.8764 16.8406C11.9105 16.7042 11.9235 16.5545 11.9376 16.4135L10.445 16.2642C10.4363 16.3512 10.4311 16.4025 10.4263 16.4411C10.4217 16.4772 10.4197 16.4829 10.4211 16.4774L11.8764 16.8406ZM10.4312 18.1485C11.1336 18.046 11.7045 17.5293 11.8764 16.8406L10.4211 16.4774C10.3965 16.5758 10.315 16.6496 10.2146 16.6642L10.4312 18.1485ZM10.0002 18.1668C10.1419 18.1668 10.2921 18.1688 10.4312 18.1485L10.2146 16.6642C10.2202 16.6634 10.2144 16.6648 10.178 16.6658C10.1391 16.6668 10.0876 16.6668 10.0002 16.6668V18.1668ZM9.00002 18.1668H10.0002V16.6668H9.00002V18.1668ZM8.56923 18.1485C8.70825 18.1688 8.85841 18.1668 9.00002 18.1668V16.6668C8.91264 16.6668 8.86118 16.6668 8.82231 16.6658C8.78595 16.6648 8.7801 16.6634 8.78573 16.6642L8.56923 18.1485ZM7.12387 16.8405C7.29573 17.5293 7.86672 18.046 8.56923 18.1485L8.78573 16.6642C8.68538 16.6496 8.60381 16.5758 8.57925 16.4774L7.12387 16.8405ZM7.06277 16.4136C7.07686 16.5546 7.08986 16.7042 7.12387 16.8405L8.57925 16.4774C8.58063 16.4829 8.57861 16.4772 8.57406 16.4411C8.5692 16.4025 8.56402 16.3513 8.55533 16.2644L7.06277 16.4136ZM7.01541 15.9965C7.01012 15.9801 7.01539 15.9895 7.02596 16.0702C7.03606 16.1474 7.04658 16.2518 7.06277 16.4136L8.55533 16.2644C8.52887 15.9998 8.50706 15.7347 8.44298 15.536L7.01541 15.9965ZM6.66351 15.8508C6.80067 15.7805 6.96811 15.8499 7.01541 15.9965L8.44298 15.536C8.11184 14.5094 6.93976 14.0239 5.97968 14.5157L6.66351 15.8508ZM6.33507 16.1122C6.46099 16.0092 6.54222 15.9428 6.60394 15.8954C6.66846 15.8458 6.67887 15.8429 6.66351 15.8508L5.97968 14.5157C5.79389 14.6109 5.59102 14.7829 5.38521 14.9513L6.33507 16.1122ZM5.99004 16.3708C6.11048 16.2985 6.22546 16.2019 6.33507 16.1122L5.38521 14.9513C5.31758 15.0066 5.27771 15.0392 5.24699 15.063C5.21826 15.0853 5.21281 15.0879 5.21769 15.085L5.99004 16.3708ZM4.04311 16.2737C4.61231 16.698 5.38144 16.7364 5.99003 16.3708L5.21769 15.085C5.13075 15.1372 5.02088 15.1317 4.93956 15.0711L4.04311 16.2737ZM3.72552 15.9821C3.82566 16.0822 3.93046 16.1898 4.04311 16.2737L4.93956 15.0711C4.94412 15.0745 4.93897 15.0714 4.91259 15.0463C4.8844 15.0196 4.84797 14.9832 4.78618 14.9214L3.72552 15.9821ZM3.01822 15.2748L3.72552 15.9821L4.78618 14.9214L4.07888 14.2141L3.01822 15.2748ZM3.0182 15.2748L3.01822 15.2748L4.07888 14.2141L4.07886 14.2141L3.0182 15.2748ZM2.72656 14.9572C2.81052 15.0698 2.91808 15.1746 3.0182 15.2748L4.07887 14.2141C4.01708 14.1523 3.98074 14.1159 3.95397 14.0877C3.92892 14.0613 3.92581 14.0562 3.92921 14.0607L2.72656 14.9572ZM2.62946 13.0103C2.26391 13.6189 2.30227 14.388 2.72656 14.9572L3.92921 14.0607C3.86859 13.9794 3.86311 13.8695 3.91533 13.7826L2.62946 13.0103ZM2.88807 12.6652C2.79839 12.7748 2.7018 12.8898 2.62946 13.0103L3.91533 13.7826C3.9124 13.7875 3.91499 13.782 3.93729 13.7533C3.96113 13.7226 3.99367 13.6827 4.049 13.6151L2.88807 12.6652ZM3.14952 12.3368C3.15739 12.3215 3.15444 12.3319 3.10486 12.3964C3.05743 12.4581 2.99109 12.5393 2.88807 12.6652L4.049 13.6151C4.21738 13.4093 4.38941 13.2064 4.48456 13.0207L3.14952 12.3368ZM3.00376 11.9849C3.15042 12.0322 3.21978 12.1997 3.14952 12.3368L4.48456 13.0207C4.97636 12.0606 4.49086 10.8885 3.46421 10.5573L3.00376 11.9849ZM2.58667 11.9376C2.74855 11.9537 2.85289 11.9643 2.93006 11.9744C3.01073 11.9849 3.02017 11.9902 3.00376 11.9849L3.46421 10.5573C3.26557 10.4933 3.00049 10.4715 2.73592 10.445L2.58667 11.9376ZM2.56825 11.9355L2.56827 11.9355L2.75432 10.4471L2.7543 10.4471L2.56825 11.9355ZM2.15988 11.8765C2.29617 11.9105 2.44575 11.9235 2.58665 11.9376L2.7359 10.445C2.64897 10.4363 2.59778 10.4311 2.55922 10.4263C2.52314 10.4217 2.51746 10.4197 2.52298 10.4211L2.15988 11.8765ZM0.851818 10.4311C0.954281 11.1336 1.47103 11.7046 2.15988 11.8765L2.52298 10.4211C2.42457 10.3965 2.35075 10.3149 2.33611 10.2146L0.851818 10.4311ZM0.833496 10.0003C0.833496 10.1419 0.831543 10.2921 0.851817 10.4311L2.33611 10.2146C2.33693 10.2202 2.33549 10.2144 2.33456 10.178C2.33355 10.1391 2.3335 10.0877 2.3335 10.0003H0.833496ZM0.833496 9.0001V10.0003H2.3335V9.0001H0.833496ZM0.851838 8.56911C0.831541 8.7082 0.833496 8.85842 0.833496 9.0001H2.3335C2.3335 8.91268 2.33355 8.8612 2.33456 8.82231C2.3355 8.78594 2.33694 8.78008 2.33612 8.78572L0.851838 8.56911ZM2.15974 7.1239C1.47101 7.29579 0.954342 7.8667 0.851838 8.56911L2.33612 8.78572C2.35076 8.68537 2.42457 8.60381 2.52296 8.57926L2.15974 7.1239ZM2.58677 7.06276C2.44579 7.07686 2.29611 7.08986 2.15974 7.1239L2.52296 8.57926C2.51744 8.58063 2.52312 8.57862 2.55922 8.57406C2.59781 8.5692 2.64903 8.56402 2.73602 8.55532L2.58677 7.06276ZM3.00408 7.01538C3.02051 7.01008 3.01106 7.01536 2.93034 7.02593C2.85313 7.03604 2.74873 7.04656 2.58677 7.06276L2.73602 8.55532C3.00073 8.52885 3.26596 8.50703 3.4647 8.44291L3.00408 7.01538ZM3.14983 6.66351C3.22006 6.80065 3.15072 6.96807 3.00408 7.01538L3.4647 8.44291C4.49115 8.1117 4.97657 6.93981 4.48495 5.9798L3.14983 6.66351ZM2.88821 6.33486C2.9913 6.46086 3.05769 6.54214 3.10514 6.60389C3.15476 6.66846 3.1577 6.67888 3.14983 6.66351L4.48495 5.9798C4.38977 5.79392 4.21763 5.59093 4.04914 5.38501L2.88821 6.33486ZM2.6294 5.98956C2.70178 6.11009 2.79845 6.22517 2.88821 6.33486L4.04914 5.38501C3.99376 5.31732 3.96119 5.27742 3.93733 5.24668C3.91501 5.21791 3.91242 5.21247 3.91536 5.21735L2.6294 5.98956ZM2.72649 4.04293C2.30234 4.61207 2.26398 5.38104 2.6294 5.98956L3.91536 5.21735C3.86315 5.13042 3.86863 5.02057 3.92923 4.93926L2.72649 4.04293ZM3.01835 3.72511C2.91814 3.82532 2.8105 3.93019 2.72649 4.04293L3.92923 4.93926C3.92582 4.94382 3.92894 4.93867 3.95401 4.91227C3.9808 4.88406 4.01717 4.8476 4.07901 4.78577L3.01835 3.72511ZM3.01835 3.72511L3.01835 3.72511L4.07901 4.78577L4.07901 4.78577L3.01835 3.72511ZM3.72556 3.0179L3.01835 3.72511L4.07901 4.78577L4.78622 4.07856L3.72556 3.0179ZM3.72556 3.0179L3.72556 3.0179L4.78622 4.07856L4.78622 4.07856L3.72556 3.0179ZM4.04314 2.72623C3.9305 2.8102 3.8257 2.91776 3.72556 3.0179L4.78622 4.07856C4.84801 4.01677 4.88444 3.98042 4.91263 3.95365C4.939 3.9286 4.94416 3.92548 4.9396 3.92888L4.04314 2.72623ZM5.99007 2.62913C5.38148 2.26359 4.61234 2.30195 4.04314 2.72623L4.9396 3.92888C5.02091 3.86827 5.13079 3.86279 5.21773 3.91501L5.99007 2.62913ZM6.33516 2.8878C6.22552 2.79809 6.11052 2.70147 5.99007 2.62913L5.21773 3.91501C5.21285 3.91208 5.21829 3.91467 5.24704 3.93698C5.27777 3.96083 5.31766 3.99338 5.38531 4.04873L6.33516 2.8878ZM6.34038 2.8921L6.34037 2.8921L5.3801 4.04443L5.3801 4.04444L6.34038 2.8921ZM6.66352 3.1492C6.67887 3.15707 6.66847 3.15413 6.60396 3.10455C6.54225 3.05713 6.46105 2.9908 6.33517 2.8878L5.38531 4.04874C5.59105 4.21707 5.79384 4.38904 5.9795 4.48416L6.66352 3.1492ZM7.01546 3.00343C6.96816 3.15012 6.80069 3.21949 6.66352 3.1492L5.9795 4.48416C6.93969 4.97616 8.11203 4.49056 8.44309 3.46371L7.01546 3.00343ZM7.06278 2.58657C7.0466 2.74836 7.03609 2.85264 7.02599 2.92976C7.01544 3.0104 7.01017 3.01983 7.01546 3.00343L8.44309 3.46371C8.5071 3.26517 8.5289 3.00024 8.55534 2.73582L7.06278 2.58657ZM7.06485 2.56816L7.06485 2.56817L8.55327 2.75422L8.55327 2.75421L7.06485 2.56816ZM7.12383 2.16001C7.08985 2.29624 7.07686 2.44574 7.06278 2.58656L8.55534 2.73581C8.56403 2.64893 8.5692 2.59776 8.57406 2.55922C8.57861 2.52316 8.58062 2.51749 8.57925 2.523L7.12383 2.16001ZM8.56939 0.851797C7.86676 0.954218 7.29566 1.47106 7.12383 2.16001L8.57925 2.523C8.60379 2.42458 8.68538 2.35074 8.78576 2.33611L8.56939 0.851797ZM8.99991 0.833496C8.85838 0.833496 8.70832 0.831545 8.56939 0.851797L8.78576 2.33611C8.78013 2.33693 8.78598 2.33549 8.82231 2.33455C8.86115 2.33355 8.91258 2.3335 8.99991 2.3335V0.833496ZM10.0003 0.833496H8.99991V2.3335H10.0003V0.833496ZM10.4311 0.851818C10.2921 0.831543 10.1419 0.833496 10.0003 0.833496V2.3335C10.0877 2.3335 10.1391 2.33355 10.178 2.33456C10.2144 2.33549 10.2202 2.33693 10.2146 2.33611L10.4311 0.851818ZM11.8765 2.15987C11.7046 1.47103 11.1336 0.954282 10.4311 0.851818L10.2146 2.33611C10.3149 2.35075 10.3965 2.42457 10.4211 2.52298L11.8765 2.15987ZM11.9376 2.58666C11.9235 2.44576 11.9105 2.29617 11.8765 2.15988L10.4211 2.52297C10.4197 2.51746 10.4217 2.52314 10.4263 2.55922C10.4311 2.59778 10.4363 2.64897 10.445 2.7359L11.9376 2.58666ZM11.9168 9.50016C11.9168 10.8349 10.8349 11.9168 9.50016 11.9168V13.4168C11.6633 13.4168 13.4168 11.6633 13.4168 9.50016H11.9168ZM9.50016 7.0835C10.8349 7.0835 11.9168 8.16547 11.9168 9.50016H13.4168C13.4168 7.33705 11.6633 5.5835 9.50016 5.5835V7.0835ZM7.0835 9.50016C7.0835 8.16547 8.16548 7.0835 9.50016 7.0835V5.5835C7.33705 5.5835 5.5835 7.33705 5.5835 9.50016H7.0835ZM9.50016 11.9168C8.16548 11.9168 7.0835 10.8349 7.0835 9.50016H5.5835C5.5835 11.6633 7.33705 13.4168 9.50016 13.4168V11.9168Z" fill="#777E91"/>
</g>
</svg>
