<svg width="22" height="23" viewBox="0 0 22 23" fill="none" xmlns="http://www.w3.org/2000/svg">
<g id="wb-sunny-round-24px 1" clip-path="url(#clip0_8932_1963)">
<path id="Vector" d="M6.04375 4.29523L5.7025 3.93773C5.36125 3.58023 4.81 3.58939 4.4775 3.93773L4.46875 3.94689C4.1275 4.30439 4.1275 4.88189 4.46875 5.23023L4.81 5.58773C5.15125 5.94523 5.69375 5.94523 6.035 5.58773L6.04375 5.57856C6.385 5.23023 6.385 4.64356 6.04375 4.29523ZM3.38375 10.1252H2.49125C2.01 10.1252 1.625 10.5286 1.625 11.0327V11.0419C1.625 11.5461 2.01 11.9494 2.49125 11.9494H3.375C3.865 11.9586 4.25 11.5552 4.25 11.0511V11.0419C4.25 10.5286 3.865 10.1252 3.38375 10.1252ZM11.2588 1.00439H11.25C10.76 1.00439 10.375 1.40773 10.375 1.91189V2.79189C10.375 3.29606 10.76 3.69939 11.2413 3.69939H11.25C11.74 3.70856 12.125 3.30523 12.125 2.80106V1.91189C12.125 1.40773 11.74 1.00439 11.2588 1.00439ZM18.0313 3.94689C17.69 3.58939 17.1388 3.58939 16.7975 3.93773L16.4563 4.29523C16.115 4.65273 16.115 5.23023 16.4563 5.57856L16.465 5.58773C16.8063 5.94523 17.3575 5.94523 17.69 5.58773L18.0313 5.23023C18.3725 4.87273 18.3725 4.30439 18.0313 3.94689ZM16.4475 17.7886L16.7888 18.1461C17.13 18.5036 17.6813 18.5036 18.0225 18.1461C18.3638 17.7886 18.3638 17.2111 18.0225 16.8536L17.6813 16.4961C17.34 16.1386 16.7888 16.1477 16.4563 16.4961C16.1063 16.8627 16.1063 17.4311 16.4475 17.7886ZM18.25 11.0327V11.0419C18.25 11.5461 18.635 11.9494 19.1163 11.9494H20C20.4813 11.9494 20.8663 11.5461 20.8663 11.0419V11.0327C20.8663 10.5286 20.4813 10.1252 20 10.1252H19.1163C18.635 10.1252 18.25 10.5286 18.25 11.0327ZM11.25 5.54189C8.35375 5.54189 6 8.00773 6 11.0419C6 14.0761 8.35375 16.5419 11.25 16.5419C14.1463 16.5419 16.5 14.0761 16.5 11.0419C16.5 8.00773 14.1463 5.54189 11.25 5.54189ZM11.2413 21.0794H11.25C11.7313 21.0794 12.1163 20.6761 12.1163 20.1719V19.2919C12.1163 18.7877 11.7313 18.3844 11.25 18.3844H11.2413C10.76 18.3844 10.375 18.7877 10.375 19.2919V20.1719C10.375 20.6761 10.76 21.0794 11.2413 21.0794ZM4.46875 18.1369C4.81 18.4944 5.36125 18.4944 5.7025 18.1369L6.04375 17.7794C6.385 17.4219 6.37625 16.8444 6.04375 16.4961L6.035 16.4869C5.69375 16.1294 5.1425 16.1294 4.80125 16.4869L4.46 16.8444C4.1275 17.2111 4.1275 17.7794 4.46875 18.1369Z" fill="#2C2F32"/>
</g>
<defs>
<clipPath id="clip0_8932_1963">
<rect width="21" height="22" fill="white" transform="translate(0.75 0.5)"/>
</clipPath>
</defs>
</svg>
